IKResults
version=1
nRows=8
nColumns=40
inDegrees=yes

Units are S.I. units (second, meters, Newtons, ...)
Angles are in degrees.

endheader
time	pelvis_tilt	pelvis_list	pelvis_rotation	pelvis_tx	pelvis_ty	pelvis_tz	hip_flexion_r	hip_adduction_r	hip_rotation_r	knee_angle_r	knee_angle_r_beta	ankle_angle_r	subtalar_angle_r	mtp_angle_r	hip_flexion_l	hip_adduction_l	hip_rotation_l	knee_angle_l	knee_angle_l_beta	ankle_angle_l	subtalar_angle_l	mtp_angle_l	lumbar_extension	lumbar_bending	lumbar_rotation	arm_flex_r	arm_add_r	arm_rot_r	elbow_flex_r	pro_sup_r	wrist_flex_r	wrist_dev_r	arm_flex_l	arm_add_l	arm_rot_l	elbow_flex_l	pro_sup_l	wrist_flex_l	wrist_dev_l
      0.22000000	    -11.20954681	      4.19171234	      4.64370234	      0.17328321	      0.86056333	      0.22308344	     25.34588529	     -4.51718490	     -1.02119554	    -84.12951052	     -1.46833696	      9.16446456	    -19.30076770	     25.00516847	     27.26041733	    -12.76493075	      0.61577083	    -40.97007410	     -0.71506269	     22.19998280	     13.53696597	      0.82860891	     -1.78323375	    -10.72552598	     -4.27893559	    -32.55100006	    -25.18151654	      2.96616756	    114.70808089	     89.95437384	      0.00000000	      0.00000000	    -27.89668756	     33.32276249	     -5.38389452	    126.00614337	     89.95437384	      0.00000000	      0.00000000
      0.23000000	    -11.14210845	      3.70620554	      4.63507651	      0.20800151	      0.85728589	      0.22313108	     30.18744841	     -3.94670191	     -0.29299664	    -86.86572935	     -1.51609298	      9.58755443	    -19.26911833	     24.79708555	     24.58467362	    -11.92014353	      0.75125731	    -41.12439526	     -0.71775610	     23.92179076	     12.28007293	     -0.42886055	     -2.32624705	    -10.11415325	     -6.04291766	    -33.38629312	    -25.38984451	      2.17895088	    113.73443643	     89.95437384	      0.00000000	      0.00000000	    -25.48876815	     33.37524201	     -5.98591920	    126.35329360	     89.95437384	      0.00000000	      0.00000000
      0.24000000	    -11.11309243	      3.06276951	      4.51474208	      0.24343927	      0.85576621	      0.22321667	     34.87156253	     -3.08497088	      0.28875006	    -88.62042421	     -1.54671819	      9.99992532	    -19.25855680	     24.31734154	     21.26025678	    -10.91007847	      0.47588757	    -40.09034844	     -0.69970858	     25.08827057	     11.14161457	     -0.99699922	     -2.67109525	     -9.22789170	     -7.72694687	    -34.59272009	    -25.85967037	      1.38576977	    114.02253386	     89.95437384	      0.00000000	      0.00000000	    -23.60595341	     33.25953403	     -6.16996035	    127.29584598	     89.95437384	      0.00000000	      0.00000000
      0.25000000	    -11.33316409	      1.94082354	      4.17076037	      0.27913758	      0.85515478	      0.22389818	     39.66058209	     -1.53555743	      0.49393114	    -89.49004939	     -1.56189601	     10.35672525	    -19.25180837	     24.47251997	     18.13723217	     -9.14308155	      0.51140737	    -38.83461342	     -0.67779187	     25.32580682	      9.34129216	     -2.17046016	     -2.54252588	     -7.77320707	     -8.65331638	    -36.66830820	    -26.21869244	     -0.06485000	    115.64500072	     89.95437384	      0.00000000	      0.00000000	    -21.29757833	     33.38999402	     -6.96002589	    128.61767997	     89.95437384	      0.00000000	      0.00000000
      0.26000000	    -11.72602063	      0.66578000	      3.96200859	      0.31556267	      0.85611426	      0.22397028	     44.22490513	     -0.06179429	      0.15044098	    -89.32541049	     -1.55902252	     10.65268760	    -19.25607524	     24.11833754	     14.87207815	     -7.51917001	     -0.25437642	    -36.88078516	     -0.64369113	     24.85024009	      8.69445737	     -2.41923685	     -2.09562415	     -6.13920388	    -10.04164024	    -38.49770374	    -27.08767560	     -1.00023510	    117.75454074	     89.95437384	      0.00000000	      0.00000000	    -19.94940661	     33.02676257	     -6.98850184	    130.41652356	     89.95437384	      0.00000000	      0.00000000
      0.27000000	    -12.04130926	     -1.04785522	      3.82949980	      0.35274741	      0.85880483	      0.22399866	     48.14100387	      1.59609946	     -0.98973747	    -88.04565562	     -1.53668658	     10.96748171	    -19.24977433	     24.38714599	     11.66015549	     -5.33429241	     -0.87620090	    -35.01081233	     -0.61105395	     23.59942532	      8.30726586	     -2.98600207	     -1.64900360	     -3.98514336	    -11.06700499	    -40.81074695	    -27.55936872	     -2.57968908	    120.38586921	     89.95437384	      0.00000000	      0.00000000	    -18.33158736	     32.75490788	     -7.64792169	    132.20907098	     89.95437384	      0.00000000	      0.00000000
      0.28000000	    -12.85278953	     -2.32520013	      3.51340749	      0.39018619	      0.86257736	      0.22364367	     52.18451380	      2.70166121	     -2.05069424	    -85.99297082	     -1.50086047	     10.91350014	    -19.20238429	     24.01832877	      8.91308878	     -3.83845807	     -1.74166505	    -32.80886580	     -0.57262273	     20.98774361	      8.35915090	     -2.85187648	     -0.61766678	     -2.34310195	    -12.31772187	    -42.53099702	    -28.38883109	     -3.51740893	    122.89469137	     89.95437384	      0.00000000	      0.00000000	    -17.67889887	     32.17674386	     -7.62404289	    134.22482549	     89.95437384	      0.00000000	      0.00000000
      0.29000000	    -12.82470920	     -3.81637970	      3.36299668	      0.42902509	      0.86924760	      0.22304377	     54.51321538	      3.81008544	     -3.66676165	    -82.85967653	     -1.44617417	     10.71458787	    -19.15555791	     24.33861463	      5.30258610	     -2.04469128	     -2.80175013	    -30.47231871	     -0.53184229	     16.44015576	     10.15983469	     -5.79454068	     -0.48733669	     -0.38205887	    -13.30057021	    -44.33365426	    -28.75345044	     -4.69167572	    125.27715553	     89.95437384	      0.00000000	      0.00000000	    -16.58918881	     31.76345056	     -8.12467567	    136.01290392	     89.95437384	      0.00000000	      0.00000000
